STARTFONT 2.1
FONT vmic-25
SIZE 24 75 75
FONTBOUNDINGBOX 28 25 0 -5

STARTPROPERTIES 10
COPYRIGHT "Public domain font.  Share and enjoy."
POINT_SIZE 240
WEIGHT 10
RESOLUTION_X 75
RESOLUTION_Y 75
X_HEIGHT 20
QUAD_WIDTH 18
DEFAULT_CHAR 0
FONT_DESCENT 5
FONT_ASCENT 20
ENDPROPERTIES

CHARS 125

STARTCHAR C001
ENCODING 1
SWIDTH 666 0
DWIDTH 16 0
BBX 16 25 0 -5
BITMAP
0700
0700
0700
0700
0700
0700
0700
0700
0700
0700
0700
0700
0700
0700
E738
7770
3FE0
1FC0
0F80
0700
0200
0000
0000
0000
0000
ENDCHAR

STARTCHAR C002
ENCODING 2
SWIDTH 916 0
DWIDTH 22 0
BBX 22 25 0 -5
BITMAP
000000
000000
000000
000000
000000
000000
000060
0000C0
000180
000180
1C0300
3F0600
61CE00
C07C00
C03C00
C03000
40E000
61D830
3F0E60
1E07C0
000000
000000
000000
000000
000000
ENDCHAR

STARTCHAR C003
ENCODING 3
SWIDTH 833 0
DWIDTH 20 0
BBX 20 25 0 -5
BITMAP
000000
000F00
001980
0031C0
0060C0
00C0C0
01C180
018300
010300
030600
030C00
061E00
060600
0C0700
0C0380
1801C0
1800C0
390180
31C300
30FE00
700000
600000
600000
600000
E00000
ENDCHAR

STARTCHAR C004
ENCODING 4
SWIDTH 708 0
DWIDTH 17 0
BBX 17 25 0 -5
BITMAP
000000
000000
000000
010000
010000
038000
038000
07C000
07C000
0EE000
0EE000
1C7000
1C7000
383800
383800
701C00
701C00
E00E00
E00E00
000000
000000
000000
000000
000000
000000
ENDCHAR

STARTCHAR C005
ENCODING 5
SWIDTH 500 0
DWIDTH 12 0
BBX 12 25 0 -5
BITMAP
0000
0000
0000
0000
0000
0000
0000
0000
0000
0000
FFE0
FFE0
FFE0
00E0
00E0
00E0
0000
0000
0000
0000
0000
0000
0000
0000
0000
ENDCHAR

STARTCHAR C006
ENCODING 6
SWIDTH 500 0
DWIDTH 12 0
BBX 12 25 0 -5
BITMAP
0000
0000
0000
0000
0780
0F80
1C00
3800
7000
E000
FF80
FF80
FF80
E000
7000
3800
1C00
0F80
0780
0000
0000
0000
0000
0000
0000
ENDCHAR

STARTCHAR C007
ENCODING 7
SWIDTH 666 0
DWIDTH 16 0
BBX 16 25 0 -5
BITMAP
0000
0000
0000
0000
0000
0000
0000
FFC0
FFF8
307C
3060
3060
3060
3060
3060
3060
3060
3060
3060
F060
003C
0000
0000
0000
0000
ENDCHAR

STARTCHAR C010
ENCODING 8
SWIDTH 625 0
DWIDTH 15 0
BBX 15 25 0 -5
BITMAP
0000
0000
C000
F000
7800
1800
0C00
0C00
0600
0600
0600
0F00
1B00
3180
3180
60C0
E0C0
C060
8038
0018
0000
0000
0000
0000
0000
ENDCHAR

STARTCHAR C011
ENCODING 9
SWIDTH 41 0
DWIDTH 1 0
BBX 1 25 0 -5
BITMAP
00
00
00
00
00
00
00
00
00
00
00
00
00
00
00
00
00
00
00
00
00
00
00
00
00
ENDCHAR

STARTCHAR C012
ENCODING 10
SWIDTH 41 0
DWIDTH 1 0
BBX 1 25 0 -5
BITMAP
00
00
00
00
00
00
00
00
00
00
00
00
00
00
00
00
00
00
00
00
00
00
00
00
00
ENDCHAR

STARTCHAR C013
ENCODING 11
SWIDTH 583 0
DWIDTH 14 0
BBX 14 25 0 -5
BITMAP
0200
0700
0F80
1FC0
3FE0
7770
E738
C718
0700
0700
0700
0700
0700
0700
0700
0700
0700
0700
0700
0700
0700
0000
0000
0000
0000
ENDCHAR

STARTCHAR C014
ENCODING 12
SWIDTH 41 0
DWIDTH 1 0
BBX 1 25 0 -5
BITMAP
00
00
00
00
00
00
00
00
00
00
00
00
00
00
00
00
00
00
00
00
00
00
00
00
00
ENDCHAR

STARTCHAR C015
ENCODING 13
SWIDTH 41 0
DWIDTH 1 0
BBX 1 25 0 -5
BITMAP
00
00
00
00
00
00
00
00
00
00
00
00
00
00
00
00
00
00
00
00
00
00
00
00
00
ENDCHAR

STARTCHAR C016
ENCODING 14
SWIDTH 958 0
DWIDTH 23 0
BBX 23 25 0 -5
BITMAP
000000
000000
000000
000000
000000
000000
1E0780
330CC0
619860
C0F030
C06030
C06030
C06030
C06030
C0F030
619860
339CC0
1F0F80
000000
000000
000000
000000
000000
000000
000000
ENDCHAR

STARTCHAR C017
ENCODING 15
SWIDTH 625 0
DWIDTH 15 0
BBX 15 25 0 -5
BITMAP
1C00
0600
0300
0380
0180
00C0
0060
0060
0030
1F30
3FF0
6078
4038
C018
C018
C018
4030
6030
2060
1FC0
0000
0000
0000
0000
0000
ENDCHAR

STARTCHAR C020
ENCODING 16
SWIDTH 708 0
DWIDTH 17 0
BBX 17 25 0 -5
BITMAP
000000
000000
000000
000000
000000
0FFC00
1FFC00
3FFC00
700000
E00000
C00000
C00000
C00000
E00000
700000
3FFC00
1FFC00
0FFC00
000000
000000
000000
000000
000000
000000
000000
ENDCHAR

STARTCHAR C021
ENCODING 17
SWIDTH 708 0
DWIDTH 17 0
BBX 17 25 0 -5
BITMAP
000000
000000
000000
000000
000000
FFC000
FFE000
FFF000
003800
001C00
000C00
000C00
000C00
001C00
003800
FFF000
FFE000
FFC000
000000
000000
000000
000000
000000
000000
000000
ENDCHAR

STARTCHAR C022
ENCODING 18
SWIDTH 625 0
DWIDTH 15 0
BBX 15 25 0 -5
BITMAP
0000
0000
0000
0000
0000
0F80
1FC0
38E0
7070
E038
E038
E038
E038
E038
E038
E038
E038
E038
E038
E038
0000
0000
0000
0000
0000
ENDCHAR

STARTCHAR C023
ENCODING 19
SWIDTH 625 0
DWIDTH 15 0
BBX 15 25 0 -5
BITMAP
0000
0000
0000
0000
0000
E038
E038
E038
E038
E038
E038
E038
E038
E038
E038
E038
7070
38E0
1FC0
0F80
0000
0000
0000
0000
0000
ENDCHAR

STARTCHAR C024
ENCODING 20
SWIDTH 666 0
DWIDTH 16 0
BBX 16 25 0 -5
BITMAP
C00C
C00C
6018
6018
6018
3030
3030
3FF0
1FE0
1860
1860
0CC0
0CC0
0CC0
0780
0780
0780
0300
0300
0300
0000
0000
0000
0000
0000
ENDCHAR

STARTCHAR C025
ENCODING 21
SWIDTH 625 0
DWIDTH 15 0
BBX 15 25 0 -5
BITMAP
FFF8
FFF8
FFF8
0038
0038
0038
0038
0038
FFF8
FFF8
FFF8
0038
0038
0038
0038
0038
0038
FFF8
FFF8
FFF8
0000
0000
0000
0000
0000
ENDCHAR

STARTCHAR C026
ENCODING 22
SWIDTH 666 0
DWIDTH 16 0
BBX 16 25 0 -5
BITMAP
0000
0000
0000
0000
0000
0780
1FE0
2010
7878
4CC8
C78C
C30C
C78C
4CC8
7878
3030
1FE0
0780
0000
0000
0000
0000
0000
0000
0000
ENDCHAR

STARTCHAR C027
ENCODING 23
SWIDTH 750 0
DWIDTH 18 0
BBX 18 25 0 -5
BITMAP
000000
000000
000000
000000
000000
000000
000000
0C3000
181800
300C00
600600
FFFF00
FFFF00
600600
300C00
181800
0C3000
000000
000000
000000
000000
000000
000000
000000
000000
ENDCHAR

STARTCHAR C030
ENCODING 24
SWIDTH 750 0
DWIDTH 18 0
BBX 18 25 0 -5
BITMAP
000000
000000
000000
000000
000000
000000
040000
0C0000
180000
300000
600000
FFFF00
FFFF00
600000
300000
180000
0C0000
040000
000000
000000
000000
000000
000000
000000
000000
ENDCHAR

STARTCHAR C031
ENCODING 25
SWIDTH 750 0
DWIDTH 18 0
BBX 18 25 0 -5
BITMAP
000000
000000
000000
000000
000000
000000
002000
003000
003800
001C00
000E00
FFFF00
FFFF80
FFFF00
000E00
001C00
003800
003000
002000
000000
000000
000000
000000
000000
000000
ENDCHAR

STARTCHAR C032
ENCODING 26
SWIDTH 666 0
DWIDTH 16 0
BBX 16 25 0 -5
BITMAP
0000
0000
0030
0030
0060
0060
00C0
00C0
0180
FFF0
FFF0
0300
0600
FFF0
FFF0
1800
3000
3000
6000
6000
C000
C000
0000
0000
0000
ENDCHAR

STARTCHAR C034
ENCODING 28
SWIDTH 583 0
DWIDTH 14 0
BBX 14 25 0 -5
BITMAP
0000
0000
0000
0000
0030
00F0
03C0
0F00
3C00
F000
F000
3C00
0F00
03C0
00F0
0030
0000
0000
FFF0
FFF0
0000
0000
0000
0000
0000
ENDCHAR

STARTCHAR C035
ENCODING 29
SWIDTH 583 0
DWIDTH 14 0
BBX 14 25 0 -5
BITMAP
0000
0000
0000
0000
C000
F000
3C00
0F00
03C0
00F0
00F0
03C0
0F00
3C00
F000
C000
0000
0000
FFF0
FFF0
0000
0000
0000
0000
0000
ENDCHAR

STARTCHAR C036
ENCODING 30
SWIDTH 500 0
DWIDTH 12 0
BBX 12 25 0 -5
BITMAP
0000
0000
0000
0000
0000
0000
0000
FFC0
FFC0
0000
0000
FFC0
FFC0
0000
0000
FFC0
FFC0
0000
0000
0000
0000
0000
0000
0000
0000
ENDCHAR

STARTCHAR C037
ENCODING 31
SWIDTH 708 0
DWIDTH 17 0
BBX 17 25 0 -5
BITMAP
000000
000000
000000
000000
000000
000000
C00600
C00600
600C00
600C00
301800
301800
183000
183000
0C6000
0C6000
06C000
06C000
038000
010000
000000
000000
000000
000000
000000
ENDCHAR

STARTCHAR C040
ENCODING 32
SWIDTH 416 0
DWIDTH 10 0
BBX 10 25 0 -5
BITMAP
0000
0000
0000
0000
0000
0000
0000
0000
0000
0000
0000
0000
0000
0000
0000
0000
0000
0000
0000
0000
0000
0000
0000
0000
0000
ENDCHAR

STARTCHAR !
ENCODING 33
SWIDTH 291 0
DWIDTH 7 0
BBX 7 25 0 -5
BITMAP
00
F0
F0
F0
F0
F0
F0
F0
F0
F0
F0
F0
F0
00
00
00
F0
F0
F0
F0
00
00
00
00
00
ENDCHAR

STARTCHAR "
ENCODING 34
SWIDTH 458 0
DWIDTH 11 0
BBX 11 25 0 -5
BITMAP
E700
E700
E700
E700
E700
6300
6300
6300
6300
0000
0000
0000
0000
0000
0000
0000
0000
0000
0000
0000
0000
0000
0000
0000
0000
ENDCHAR

STARTCHAR #
ENCODING 35
SWIDTH 666 0
DWIDTH 16 0
BBX 16 25 0 -5
BITMAP
0000
0000
0000
0000
0000
0000
38E0
38E0
FFF8
FFF8
FFF8
38E0
38E0
38E0
FFF8
FFF8
FFF8
38E0
38E0
0000
0000
0000
0000
0000
0000
ENDCHAR

STARTCHAR $
ENCODING 36
SWIDTH 833 0
DWIDTH 20 0
BBX 20 25 0 -5
BITMAP
01C000
3FFE00
7FFF00
FFFF80
F1C780
E1C380
E1C000
E1C000
E1C000
FFFE00
7FFF00
3FFF80
01C380
01C380
01C380
01C380
E1C380
F1C780
FFFF80
7FFF00
3FFE00
01C000
000000
000000
000000
ENDCHAR

STARTCHAR %
ENCODING 37
SWIDTH 833 0
DWIDTH 20 0
BBX 20 25 0 -5
BITMAP
7CC000
FEC000
C6C000
C6C000
C6C000
FEC000
7CC000
00C000
00C000
00C000
00C000
00C000
00C000
00CF80
00DFC0
00D8C0
00D8C0
00D8C0
00DFC0
00CF80
000000
000000
000000
000000
000000
ENDCHAR

STARTCHAR &
ENCODING 38
SWIDTH 833 0
DWIDTH 20 0
BBX 20 25 0 -5
BITMAP
0FF800
1FFC00
3FFE00
3C0F00
380700
380000
3C0000
1E0000
0F0000
3F8000
7FC000
F0E000
E07000
E03B80
E01F80
E00F80
F00F00
FFFF80
7FFFC0
3FFDC0
000000
000000
000000
000000
000000
ENDCHAR

STARTCHAR '
ENCODING 39
SWIDTH 291 0
DWIDTH 7 0
BBX 7 25 0 -5
BITMAP
E0
E0
E0
E0
E0
20
60
E0
C0
00
00
00
00
00
00
00
00
00
00
00
00
00
00
00
00
ENDCHAR

STARTCHAR (
ENCODING 40
SWIDTH 375 0
DWIDTH 9 0
BBX 9 25 0 -5
BITMAP
3E00
7E00
F800
F000
E000
E000
E000
E000
E000
E000
E000
E000
E000
E000
E000
E000
E000
E000
E000
F000
F800
7E00
3E00
0000
0000
ENDCHAR

STARTCHAR )
ENCODING 41
SWIDTH 375 0
DWIDTH 9 0
BBX 9 25 0 -5
BITMAP
F000
F800
3C00
1E00
0E00
0E00
0E00
0E00
0E00
0E00
0E00
0E00
0E00
0E00
0E00
0E00
0E00
0E00
0E00
1E00
3E00
FC00
F800
0000
0000
ENDCHAR

STARTCHAR *
ENCODING 42
SWIDTH 625 0
DWIDTH 15 0
BBX 15 25 0 -5
BITMAP
0000
0000
0000
0000
0780
0780
F7BC
F7BC
F03C
F03C
0000
0000
0000
F03C
F03C
F7BC
F7BC
0780
0780
0000
0000
0000
0000
0000
0000
ENDCHAR

STARTCHAR +
ENCODING 43
SWIDTH 625 0
DWIDTH 15 0
BBX 15 25 0 -5
BITMAP
0000
0000
0000
0000
0000
0700
0700
0700
0700
0700
FFF8
FFF8
FFF8
0700
0700
0700
0700
0700
0000
0000
0000
0000
0000
0000
0000
ENDCHAR

STARTCHAR ,
ENCODING 44
SWIDTH 291 0
DWIDTH 7 0
BBX 7 25 0 -5
BITMAP
00
00
00
00
00
00
00
00
00
00
00
00
00
00
00
F0
F0
F0
F0
F0
30
30
70
F0
E0
ENDCHAR

STARTCHAR -
ENCODING 45
SWIDTH 541 0
DWIDTH 13 0
BBX 13 25 0 -5
BITMAP
0000
0000
0000
0000
0000
0000
0000
0000
0000
0000
FFE0
FFE0
FFE0
0000
0000
0000
0000
0000
0000
0000
0000
0000
0000
0000
0000
ENDCHAR

STARTCHAR .
ENCODING 46
SWIDTH 291 0
DWIDTH 7 0
BBX 7 25 0 -5
BITMAP
00
00
00
00
00
00
00
00
00
00
00
00
00
00
00
00
F0
F0
F0
F0
00
00
00
00
00
ENDCHAR

STARTCHAR /
ENCODING 47
SWIDTH 541 0
DWIDTH 13 0
BBX 13 25 0 -5
BITMAP
00E0
01E0
01C0
01C0
03C0
0380
0380
0780
0700
0700
0F00
0E00
0E00
1E00
1C00
1C00
3C00
3800
3800
7800
7000
7000
F000
E000
E000
ENDCHAR

STARTCHAR 0
ENCODING 48
SWIDTH 833 0
DWIDTH 20 0
BBX 20 25 0 -5
BITMAP
000000
3FFE00
7FFF00
FFFF80
F00780
E00380
E00380
E00380
E00380
E00380
E00380
E00380
E00380
E00380
E00380
E00380
F00780
FFFF80
7FFF00
3FFE00
000000
000000
000000
000000
000000
ENDCHAR

STARTCHAR 1
ENCODING 49
SWIDTH 416 0
DWIDTH 10 0
BBX 10 25 0 -5
BITMAP
0000
1E00
3E00
7E00
EE00
0E00
0E00
0E00
0E00
0E00
0E00
0E00
0E00
0E00
0E00
0E00
0E00
0E00
0E00
0E00
0000
0000
0000
0000
0000
ENDCHAR

STARTCHAR 2
ENCODING 50
SWIDTH 791 0
DWIDTH 19 0
BBX 19 25 0 -5
BITMAP
000000
3FFC00
7FFE00
FFFF00
F00F00
E00700
E00700
000700
000700
000700
000F00
1FFF00
3FFE00
7FFC00
F80000
F00000
E00000
FFFF00
FFFF00
FFFF00
000000
000000
000000
000000
000000
ENDCHAR

STARTCHAR 3
ENCODING 51
SWIDTH 791 0
DWIDTH 19 0
BBX 19 25 0 -5
BITMAP
000000
3FFC00
7FFE00
FFFF00
F00F00
E00700
E00700
000700
000F00
07FE00
07FC00
07FE00
000F00
000700
E00700
E00700
F00F00
FFFF00
7FFE00
3FFC00
000000
000000
000000
000000
000000
ENDCHAR

STARTCHAR 4
ENCODING 52
SWIDTH 791 0
DWIDTH 19 0
BBX 19 25 0 -5
BITMAP
000000
001C00
003C00
007C00
00FC00
01FC00
03DC00
079C00
0F1C00
1E1C00
3C1C00
781C00
F01C00
FFFF00
FFFF00
FFFF00
001C00
001C00
001C00
001C00
000000
000000
000000
000000
000000
ENDCHAR

STARTCHAR 5
ENCODING 53
SWIDTH 791 0
DWIDTH 19 0
BBX 19 25 0 -5
BITMAP
000000
FFFF00
FFFF00
FFFF00
E00000
E00000
E00000
EFFC00
FFFE00
FFFF00
F00F00
E00700
000700
000700
000700
E00700
F00F00
FFFF00
7FFE00
3FFC00
000000
000000
000000
000000
000000
ENDCHAR

STARTCHAR 6
ENCODING 54
SWIDTH 791 0
DWIDTH 19 0
BBX 19 25 0 -5
BITMAP
000000
3FFC00
7FFE00
FFFF00
F00F00
E00700
E00000
E00000
EFFC00
FFFE00
FFFF00
F00F00
E00700
E00700
E00700
E00700
F00F00
FFFF00
7FFE00
3FFC00
000000
000000
000000
000000
000000
ENDCHAR

STARTCHAR 7
ENCODING 55
SWIDTH 791 0
DWIDTH 19 0
BBX 19 25 0 -5
BITMAP
000000
FFFF00
FFFF00
FFFF00
000700
000700
000F00
001E00
003C00
007800
00F000
01E000
03C000
078000
0F0000
1E0000
3C0000
780000
700000
700000
000000
000000
000000
000000
000000
ENDCHAR

STARTCHAR 8
ENCODING 56
SWIDTH 791 0
DWIDTH 19 0
BBX 19 25 0 -5
BITMAP
000000
3FFC00
7FFE00
FFFF00
F00F00
E00700
E00700
E00700
F00F00
7FFE00
3FFC00
7FFE00
F00F00
E00700
E00700
E00700
F00F00
FFFF00
7FFE00
3FFC00
000000
000000
000000
000000
000000
ENDCHAR

STARTCHAR 9
ENCODING 57
SWIDTH 791 0
DWIDTH 19 0
BBX 19 25 0 -5
BITMAP
000000
3FFC00
7FFE00
FFFF00
F00F00
E00700
E00700
E00700
E00700
F00F00
FFFF00
7FFF00
3FFF00
000700
000700
E00700
F00F00
FFFF00
7FFE00
3FFC00
000000
000000
000000
000000
000000
ENDCHAR

STARTCHAR :
ENCODING 58
SWIDTH 291 0
DWIDTH 7 0
BBX 7 25 0 -5
BITMAP
00
00
00
00
00
00
00
00
F0
F0
F0
F0
00
00
00
00
F0
F0
F0
F0
00
00
00
00
00
ENDCHAR

STARTCHAR ;
ENCODING 59
SWIDTH 291 0
DWIDTH 7 0
BBX 7 25 0 -5
BITMAP
00
00
00
00
00
00
00
00
F0
F0
F0
F0
00
00
00
00
F0
F0
F0
F0
70
70
E0
C0
00
ENDCHAR

STARTCHAR <
ENCODING 60
SWIDTH 666 0
DWIDTH 16 0
BBX 16 25 0 -5
BITMAP
0000
0000
0000
000C
003C
00FC
03F0
0FC0
3F00
FC00
F000
FC00
3F00
0FC0
03F0
00FC
003C
000C
0000
0000
0000
0000
0000
0000
0000
ENDCHAR

STARTCHAR =
ENCODING 61
SWIDTH 541 0
DWIDTH 13 0
BBX 13 25 0 -5
BITMAP
0000
0000
0000
0000
0000
0000
0000
FFE0
FFE0
FFE0
0000
0000
FFE0
FFE0
FFE0
0000
0000
0000
0000
0000
0000
0000
0000
0000
0000
ENDCHAR

STARTCHAR >
ENCODING 62
SWIDTH 666 0
DWIDTH 16 0
BBX 16 25 0 -5
BITMAP
0000
0000
0000
C000
F000
FC00
3F00
0FC0
03F0
00FC
003C
00FC
03F0
0FC0
3F00
FC00
F000
C000
0000
0000
0000
0000
0000
0000
0000
ENDCHAR

STARTCHAR ?
ENCODING 63
SWIDTH 833 0
DWIDTH 20 0
BBX 20 25 0 -5
BITMAP
000000
3FFE00
7FFF00
FFFF80
F00780
E00380
000380
000780
03FF80
07FF00
0FFE00
0F8000
0F0000
0F0000
000000
000000
0F0000
0F0000
0F0000
0F0000
000000
000000
000000
000000
000000
ENDCHAR

STARTCHAR @
ENCODING 64
SWIDTH 833 0
DWIDTH 20 0
BBX 20 25 0 -5
BITMAP
000000
000000
000000
000000
000000
1FFE00
3FFF00
780780
F003C0
E3E1C0
C7F0C0
CE38C0
CC18C0
CC18C0
CC18C0
CE39C0
CFFF80
C7FF00
E00000
700000
3FFFC0
1FFFC0
000000
000000
000000
ENDCHAR

STARTCHAR A
ENCODING 65
SWIDTH 791 0
DWIDTH 19 0
BBX 19 25 0 -5
BITMAP
000000
1FF800
7FFE00
FFFF00
F00F00
E00700
E00700
E00700
E00700
E00700
E00700
E00700
FFFF00
FFFF00
FFFF00
E00700
E00700
E00700
E00700
E00700
000000
000000
000000
000000
000000
ENDCHAR

STARTCHAR B
ENCODING 66
SWIDTH 791 0
DWIDTH 19 0
BBX 19 25 0 -5
BITMAP
000000
FFF800
FFFC00
FFFE00
E01E00
E00E00
E00E00
E00E00
E01C00
FFF800
FFFC00
FFFE00
E00F00
E00700
E00700
E00700
E00F00
FFFF00
FFFE00
FFFC00
000000
000000
000000
000000
000000
ENDCHAR

STARTCHAR C
ENCODING 67
SWIDTH 833 0
DWIDTH 20 0
BBX 20 25 0 -5
BITMAP
000000
3FFE00
7FFF00
FFFF80
F00780
E00380
E00380
E00000
E00000
E00000
E00000
E00000
E00000
E00000
E00380
E00380
F00780
FFFF80
7FFF00
3FFE00
000000
000000
000000
000000
000000
ENDCHAR

STARTCHAR D
ENCODING 68
SWIDTH 833 0
DWIDTH 20 0
BBX 20 25 0 -5
BITMAP
000000
FFFE00
FFFF00
FFFF80
E00780
E00380
E00380
E00380
E00380
E00380
E00380
E00380
E00380
E00380
E00380
E00380
E00780
FFFF80
FFFF00
FFFE00
000000
000000
000000
000000
000000
ENDCHAR

STARTCHAR E
ENCODING 69
SWIDTH 791 0
DWIDTH 19 0
BBX 19 25 0 -5
BITMAP
000000
FFFF00
FFFF00
FFFF00
E00000
E00000
E00000
E00000
E00000
FFFE00
FFFE00
FFFE00
E00000
E00000
E00000
E00000
E00000
FFFF00
FFFF00
FFFF00
000000
000000
000000
000000
000000
ENDCHAR

STARTCHAR F
ENCODING 70
SWIDTH 791 0
DWIDTH 19 0
BBX 19 25 0 -5
BITMAP
000000
FFFF00
FFFF00
FFFF00
E00000
E00000
E00000
E00000
E00000
FFFE00
FFFE00
FFFE00
E00000
E00000
E00000
E00000
E00000
E00000
E00000
E00000
000000
000000
000000
000000
000000
ENDCHAR

STARTCHAR G
ENCODING 71
SWIDTH 833 0
DWIDTH 20 0
BBX 20 25 0 -5
BITMAP
000000
3FFE00
7FFF00
FFFF80
F00780
E00380
E00380
E00000
E00000
E00000
E00000
E0FF80
E0FF80
E00380
E00380
E00380
F00780
FFFF80
7FFF00
3FFE00
000000
000000
000000
000000
000000
ENDCHAR

STARTCHAR H
ENCODING 72
SWIDTH 833 0
DWIDTH 20 0
BBX 20 25 0 -5
BITMAP
000000
E00380
E00380
E00380
E00380
E00380
E00380
E00380
E00380
E00380
FFFF80
FFFF80
FFFF80
E00380
E00380
E00380
E00380
E00380
E00380
E00380
000000
000000
000000
000000
000000
ENDCHAR

STARTCHAR I
ENCODING 73
SWIDTH 333 0
DWIDTH 8 0
BBX 8 25 0 -5
BITMAP
00
E0
E0
E0
E0
E0
E0
E0
E0
E0
E0
E0
E0
E0
E0
E0
E0
E0
E0
E0
00
00
00
00
00
ENDCHAR

STARTCHAR J
ENCODING 74
SWIDTH 750 0
DWIDTH 18 0
BBX 18 25 0 -5
BITMAP
000000
000700
000700
000700
000700
000700
000700
000700
000700
000700
000700
000700
000700
000700
000700
E00700
F00F00
FFFF00
7FFE00
3FFC00
000000
000000
000000
000000
000000
ENDCHAR

STARTCHAR K
ENCODING 75
SWIDTH 791 0
DWIDTH 19 0
BBX 19 25 0 -5
BITMAP
000000
E00F00
E01E00
E03C00
E07800
E0F000
E1E000
E3C000
E78000
FF0000
FE0000
FF0000
E78000
E3C000
E1E000
E0F000
E07800
E03C00
E01E00
E00F00
000000
000000
000000
000000
000000
ENDCHAR

STARTCHAR L
ENCODING 76
SWIDTH 750 0
DWIDTH 18 0
BBX 18 25 0 -5
BITMAP
000000
E00000
E00000
E00000
E00000
E00000
E00000
E00000
E00000
E00000
E00000
E00000
E00000
E00000
E00000
E00000
E00000
FFFE00
FFFE00
FFFE00
000000
000000
000000
000000
000000
ENDCHAR

STARTCHAR M
ENCODING 77
SWIDTH 1041 0
DWIDTH 25 0
BBX 25 25 0 -5
BITMAP
00000000
F8007C00
F8007C00
FC00FC00
FC00FC00
FE01FC00
EE01DC00
EF03DC00
E7039C00
E7879C00
E3871C00
E3CF1C00
E1CE1C00
E1FE1C00
E0FC1C00
E0FC1C00
E0781C00
E0781C00
E0301C00
E0301C00
00000000
00000000
00000000
00000000
00000000
ENDCHAR

STARTCHAR N
ENCODING 78
SWIDTH 791 0
DWIDTH 19 0
BBX 19 25 0 -5
BITMAP
000000
F80700
FC0700
FC0700
FE0700
FE0700
EF0700
E70700
E78700
E38700
E3C700
E1C700
E1E700
E0E700
E0F700
E07700
E07F00
E03F00
E03F00
E01F00
000000
000000
000000
000000
000000
ENDCHAR

STARTCHAR O
ENCODING 79
SWIDTH 833 0
DWIDTH 20 0
BBX 20 25 0 -5
BITMAP
000000
3FFE00
7FFF00
FFFF80
F00780
E00380
E00380
E00380
E00380
E00380
E00380
E00380
E00380
E00380
E00380
E00380
F00780
FFFF80
7FFF00
3FFE00
000000
000000
000000
000000
000000
ENDCHAR

STARTCHAR P
ENCODING 80
SWIDTH 791 0
DWIDTH 19 0
BBX 19 25 0 -5
BITMAP
000000
FFFC00
FFFE00
FFFF00
E00F00
E00700
E00700
E00700
E00700
E00F00
FFFF00
FFFE00
FFFC00
E00000
E00000
E00000
E00000
E00000
E00000
E00000
000000
000000
000000
000000
000000
ENDCHAR

STARTCHAR Q
ENCODING 81
SWIDTH 875 0
DWIDTH 21 0
BBX 21 25 0 -5
BITMAP
000000
3FFE00
7FFF00
FFFF80
F00780
E00380
E00380
E00380
E00380
E00380
E00380
E00380
E06380
E07380
E07B80
E03F80
F01F80
FFFFC0
7FFBC0
3FF3C0
000000
000000
000000
000000
000000
ENDCHAR

STARTCHAR R
ENCODING 82
SWIDTH 833 0
DWIDTH 20 0
BBX 20 25 0 -5
BITMAP
000000
FFFE00
FFFF00
FFFF80
E00780
E00380
E00380
E00380
E00380
E00780
FFFF80
FFFF00
FFFE00
E00F00
E00780
E00380
E00380
E00380
E00380
E00380
000000
000000
000000
000000
000000
ENDCHAR

STARTCHAR S
ENCODING 83
SWIDTH 833 0
DWIDTH 20 0
BBX 20 25 0 -5
BITMAP
000000
3FFE00
7FFF00
FFFF80
F00780
E00380
E00000
E00000
E00000
FFFE00
7FFF00
3FFF80
000380
000380
000380
000380
E00380
F00780
FFFF80
7FFF00
3FFE00
000000
000000
000000
000000
ENDCHAR

STARTCHAR T
ENCODING 84
SWIDTH 833 0
DWIDTH 20 0
BBX 20 25 0 -5
BITMAP
000000
FFFF80
FFFF80
FFFF80
01C000
01C000
01C000
01C000
01C000
01C000
01C000
01C000
01C000
01C000
01C000
01C000
01C000
01C000
01C000
01C000
000000
000000
000000
000000
000000
ENDCHAR

STARTCHAR U
ENCODING 85
SWIDTH 833 0
DWIDTH 20 0
BBX 20 25 0 -5
BITMAP
000000
E00380
E00380
E00380
E00380
E00380
E00380
E00380
E00380
E00380
E00380
E00380
E00380
E00380
E00380
E00380
F00780
FFFF80
7FFF00
3FFE00
000000
000000
000000
000000
000000
ENDCHAR

STARTCHAR V
ENCODING 86
SWIDTH 916 0
DWIDTH 22 0
BBX 22 25 0 -5
BITMAP
000000
E000E0
E000E0
E000E0
7001C0
7001C0
380380
380380
1C0700
1C0700
0E0E00
0E0E00
071C00
071C00
03B800
03B800
01F000
01F000
00E000
00E000
000000
000000
000000
000000
000000
ENDCHAR

STARTCHAR W
ENCODING 87
SWIDTH 1166 0
DWIDTH 28 0
BBX 28 25 0 -5
BITMAP
00000000
C0060030
C0060030
E00F0070
600F0060
600F0060
701F80E0
301980C0
301980C0
3839C1C0
1830C180
1830C180
1C70E380
0C606300
0C606300
0EE07700
06C03600
07C03E00
07C03E00
03801C00
00000000
00000000
00000000
00000000
00000000
ENDCHAR

STARTCHAR X
ENCODING 88
SWIDTH 833 0
DWIDTH 20 0
BBX 20 25 0 -5
BITMAP
000000
E000E0
F001E0
7803C0
3C0780
1E0F00
0F1E00
07BC00
03F800
01F000
00E000
01F000
03F800
07BC00
0F1E00
1E0F00
3C0780
7803C0
F001E0
E000E0
000000
000000
000000
000000
000000
ENDCHAR

STARTCHAR Y
ENCODING 89
SWIDTH 833 0
DWIDTH 20 0
BBX 20 25 0 -5
BITMAP
000000
E000E0
F001E0
7803C0
3C0780
1E0F00
0F1E00
07BC00
03F800
01F000
00E000
00E000
00E000
00E000
00E000
00E000
00E000
00E000
00E000
00E000
000000
000000
000000
000000
000000
ENDCHAR

STARTCHAR Z
ENCODING 90
SWIDTH 791 0
DWIDTH 19 0
BBX 19 25 0 -5
BITMAP
000000
FFFF80
FFFF80
FFFF80
000780
000F00
001E00
003C00
007800
00F000
01E000
03C000
078000
0F0000
1E0000
3C0000
780000
FFFF80
FFFF80
FFFF80
000000
000000
000000
000000
000000
ENDCHAR

STARTCHAR [
ENCODING 91
SWIDTH 416 0
DWIDTH 10 0
BBX 10 25 0 -5
BITMAP
FE00
FE00
FE00
E000
E000
E000
E000
E000
E000
E000
E000
E000
E000
E000
E000
E000
E000
E000
E000
E000
E000
E000
FE00
FE00
FE00
ENDCHAR

STARTCHAR \
ENCODING 92
SWIDTH 541 0
DWIDTH 13 0
BBX 13 25 0 -5
BITMAP
E000
E000
E000
F000
7000
7000
7800
3800
3800
3C00
1C00
1C00
1E00
0E00
0E00
0F00
0700
0700
0780
0380
0380
03C0
01C0
01C0
01C0
ENDCHAR

STARTCHAR ]
ENCODING 93
SWIDTH 416 0
DWIDTH 10 0
BBX 10 25 0 -5
BITMAP
FE00
FE00
FE00
0E00
0E00
0E00
0E00
0E00
0E00
0E00
0E00
0E00
0E00
0E00
0E00
0E00
0E00
0E00
0E00
0E00
0E00
0E00
FE00
FE00
FE00
ENDCHAR

STARTCHAR _
ENCODING 95
SWIDTH 1166 0
DWIDTH 28 0
BBX 28 25 0 -5
BITMAP
00000000
00000000
00000000
00000000
00000000
00000000
00000000
00000000
00000000
00000000
00000000
00000000
00000000
00000000
00000000
00000000
00000000
00000000
00000000
00000000
FFFFFFF0
FFFFFFF0
FFFFFFF0
00000000
00000000
ENDCHAR

STARTCHAR `
ENCODING 96
SWIDTH 291 0
DWIDTH 7 0
BBX 7 25 0 -5
BITMAP
00
E0
E0
E0
E0
80
C0
E0
60
00
00
00
00
00
00
00
00
00
00
00
00
00
00
00
00
ENDCHAR

STARTCHAR a
ENCODING 97
SWIDTH 666 0
DWIDTH 16 0
BBX 16 25 0 -5
BITMAP
0000
0000
0000
0000
0000
0000
3FF0
7FF8
FFFC
F03C
E01C
001C
3FFC
7FFC
F07C
E01C
E01C
F03C
7FFC
3FDC
0000
0000
0000
0000
0000
ENDCHAR

STARTCHAR b
ENCODING 98
SWIDTH 708 0
DWIDTH 17 0
BBX 17 25 0 -5
BITMAP
000000
E00000
E00000
E00000
E00000
E00000
EFF800
FFFC00
FFFE00
F01E00
E00E00
E00E00
E00E00
E00E00
E00E00
E00E00
F01E00
FFFE00
FFFC00
EFF800
000000
000000
000000
000000
000000
ENDCHAR

STARTCHAR c
ENCODING 99
SWIDTH 666 0
DWIDTH 16 0
BBX 16 25 0 -5
BITMAP
0000
0000
0000
0000
0000
0000
3FF0
7FF8
FFFC
F03C
E01C
E000
E000
E000
E000
E01C
F03C
FFFC
7FF8
3FF0
0000
0000
0000
0000
0000
ENDCHAR

STARTCHAR d
ENCODING 100
SWIDTH 708 0
DWIDTH 17 0
BBX 17 25 0 -5
BITMAP
000000
000E00
000E00
000E00
000E00
000E00
3FEE00
7FFE00
FFFE00
F01E00
E00E00
E00E00
E00E00
E00E00
E00E00
E00E00
F01E00
FFFE00
7FFE00
3FEE00
000000
000000
000000
000000
000000
ENDCHAR

STARTCHAR e
ENCODING 101
SWIDTH 666 0
DWIDTH 16 0
BBX 16 25 0 -5
BITMAP
0000
0000
0000
0000
0000
0000
3FF0
7FF8
FFFC
F03C
E01C
FFFC
FFFC
FFFC
E000
E01C
F03C
FFFC
7FF8
3FF0
0000
0000
0000
0000
0000
ENDCHAR

STARTCHAR f
ENCODING 102
SWIDTH 500 0
DWIDTH 12 0
BBX 12 25 0 -5
BITMAP
0000
1F00
3F80
3980
3800
3800
3800
3800
FF00
FF00
3800
3800
3800
3800
3800
3800
3800
3800
3800
3800
0000
0000
0000
0000
0000
ENDCHAR

STARTCHAR g
ENCODING 103
SWIDTH 708 0
DWIDTH 17 0
BBX 17 25 0 -5
BITMAP
000000
000000
000000
000000
000000
000000
3FEE00
7FFE00
FFFE00
F01E00
E00E00
E00E00
E00E00
E00E00
E00E00
E00E00
F01E00
FFFE00
7FFE00
3FEE00
000E00
E01E00
FFFE00
7FFC00
3FF800
ENDCHAR

STARTCHAR h
ENCODING 104
SWIDTH 708 0
DWIDTH 17 0
BBX 17 25 0 -5
BITMAP
000000
E00000
E00000
E00000
E00000
E00000
EFF800
FFFC00
FFFE00
F01E00
E00E00
E00E00
E00E00
E00E00
E00E00
E00E00
E00E00
E00E00
E00E00
E00E00
000000
000000
000000
000000
000000
ENDCHAR

STARTCHAR i
ENCODING 105
SWIDTH 291 0
DWIDTH 7 0
BBX 7 25 0 -5
BITMAP
00
E0
E0
E0
00
00
00
E0
E0
E0
E0
E0
E0
E0
E0
E0
E0
E0
E0
E0
00
00
00
00
00
ENDCHAR

STARTCHAR j
ENCODING 106
SWIDTH 375 0
DWIDTH 9 0
BBX 9 25 0 -5
BITMAP
0000
1C00
1C00
1C00
0000
0000
0000
1C00
1C00
1C00
1C00
1C00
1C00
1C00
1C00
1C00
1C00
1C00
1C00
1C00
1C00
1C00
3C00
F800
F000
ENDCHAR

STARTCHAR k
ENCODING 107
SWIDTH 583 0
DWIDTH 14 0
BBX 14 25 0 -5
BITMAP
0000
0000
E000
E000
E000
E000
E000
E0E0
E1E0
E3C0
E780
EF00
FE00
FC00
FE00
EF00
E780
E3C0
E1E0
E0E0
0000
0000
0000
0000
0000
ENDCHAR

STARTCHAR l
ENCODING 108
SWIDTH 291 0
DWIDTH 7 0
BBX 7 25 0 -5
BITMAP
00
E0
E0
E0
E0
E0
E0
E0
E0
E0
E0
E0
E0
E0
E0
E0
E0
E0
E0
E0
00
00
00
00
00
ENDCHAR

STARTCHAR m
ENCODING 109
SWIDTH 958 0
DWIDTH 23 0
BBX 23 25 0 -5
BITMAP
000000
000000
000000
000000
000000
000000
000000
E7C7E0
EFEFF0
FFFFF8
F0F878
E07038
E07038
E07038
E07038
E07038
E07038
E07038
E07038
E07038
000000
000000
000000
000000
000000
ENDCHAR

STARTCHAR n
ENCODING 110
SWIDTH 666 0
DWIDTH 16 0
BBX 16 25 0 -5
BITMAP
0000
0000
0000
0000
0000
0000
E7F0
EFF8
FFFC
F03C
E01C
E01C
E01C
E01C
E01C
E01C
E01C
E01C
E01C
E01C
0000
0000
0000
0000
0000
ENDCHAR

STARTCHAR o
ENCODING 111
SWIDTH 708 0
DWIDTH 17 0
BBX 17 25 0 -5
BITMAP
000000
000000
000000
000000
000000
000000
3FF800
7FFC00
FFFE00
F01E00
E00E00
E00E00
E00E00
E00E00
E00E00
E00E00
F01E00
FFFE00
7FFC00
3FF800
000000
000000
000000
000000
000000
ENDCHAR

STARTCHAR p
ENCODING 112
SWIDTH 708 0
DWIDTH 17 0
BBX 17 25 0 -5
BITMAP
000000
000000
000000
000000
000000
000000
EFF800
FFFC00
FFFE00
F01E00
E00E00
E00E00
E00E00
E00E00
E00E00
E00E00
F01E00
FFFE00
FFFC00
FFF800
E00000
E00000
E00000
E00000
E00000
ENDCHAR

STARTCHAR q
ENCODING 113
SWIDTH 708 0
DWIDTH 17 0
BBX 17 25 0 -5
BITMAP
000000
000000
000000
000000
000000
000000
3FDC00
7FFC00
FFFC00
F03C00
E01C00
E01C00
E01C00
E01C00
E01C00
E01C00
F03C00
FFFC00
7FFC00
3FDC00
001C00
001C00
001C00
001C00
001C00
ENDCHAR

STARTCHAR r
ENCODING 114
SWIDTH 500 0
DWIDTH 12 0
BBX 12 25 0 -5
BITMAP
0000
0000
0000
0000
0000
0000
EF80
FFC0
FFC0
F1C0
E000
E000
E000
E000
E000
E000
E000
E000
E000
0000
0000
0000
0000
0000
0000
ENDCHAR

STARTCHAR s
ENCODING 115
SWIDTH 708 0
DWIDTH 17 0
BBX 17 25 0 -5
BITMAP
000000
000000
000000
000000
000000
000000
3FF800
7FFC00
FFFE00
F01E00
E00000
FFF800
7FFC00
3FFE00
001E00
E00E00
F01E00
FFFE00
7FFC00
3FF800
000000
000000
000000
000000
000000
ENDCHAR

STARTCHAR t
ENCODING 116
SWIDTH 458 0
DWIDTH 11 0
BBX 11 25 0 -5
BITMAP
0000
3800
3800
3800
3800
3800
FF00
FF00
3800
3800
3800
3800
3800
3800
3800
3800
3800
3B00
3F00
3F00
0000
0000
0000
0000
0000
ENDCHAR

STARTCHAR u
ENCODING 117
SWIDTH 708 0
DWIDTH 17 0
BBX 17 25 0 -5
BITMAP
000000
000000
000000
000000
000000
000000
E00E00
E00E00
E00E00
E00E00
E00E00
E00E00
E00E00
E00E00
E00E00
E00E00
F01E00
FFFE00
7FFE00
3FF600
000000
000000
000000
000000
000000
ENDCHAR

STARTCHAR v
ENCODING 118
SWIDTH 625 0
DWIDTH 15 0
BBX 15 25 0 -5
BITMAP
0000
0000
0000
0000
0000
0000
0000
E038
E038
E038
7070
7070
38E0
38E0
1DC0
1DC0
0D80
0F80
0700
0700
0000
0000
0000
0000
0000
ENDCHAR

STARTCHAR w
ENCODING 119
SWIDTH 1041 0
DWIDTH 25 0
BBX 25 25 0 -5
BITMAP
00000000
00000000
00000000
00000000
00000000
00000000
00000000
E0380E00
E0380E00
E0380E00
707C1C00
706C1C00
38EE3800
38EE3800
1DC77000
1DC77000
0D836000
0F83E000
0701C000
0701C000
00000000
00000000
00000000
00000000
00000000
ENDCHAR

STARTCHAR x
ENCODING 120
SWIDTH 625 0
DWIDTH 15 0
BBX 15 25 0 -5
BITMAP
0000
0000
0000
0000
0000
0000
0000
E01C
F03C
7878
3CF0
1FE0
0FC0
0780
0FC0
1FE0
3CF0
7878
F03C
E01C
0000
0000
0000
0000
0000
ENDCHAR

STARTCHAR y
ENCODING 121
SWIDTH 625 0
DWIDTH 15 0
BBX 15 25 0 -5
BITMAP
0000
0000
0000
0000
0000
0000
0000
E038
E038
E038
7070
7070
38E0
38E0
1DC0
1DC0
0F80
0F80
0700
0700
0E00
0E00
1C00
1C00
3800
ENDCHAR

STARTCHAR z
ENCODING 122
SWIDTH 583 0
DWIDTH 14 0
BBX 14 25 0 -5
BITMAP
0000
0000
0000
0000
0000
0000
0000
FFE0
FFE0
FFE0
01C0
0380
0700
0E00
1C00
3800
7000
FFE0
FFE0
FFE0
0000
0000
0000
0000
0000
ENDCHAR

STARTCHAR {
ENCODING 123
SWIDTH 458 0
DWIDTH 11 0
BBX 11 25 0 -5
BITMAP
0F00
1C00
3000
3000
3000
3800
1800
1800
1800
1000
2000
6000
E000
6000
2000
1000
1800
1800
1800
3800
3000
3000
3000
1C00
0F00
ENDCHAR

STARTCHAR |
ENCODING 124
SWIDTH 291 0
DWIDTH 7 0
BBX 7 25 0 -5
BITMAP
E0
E0
E0
E0
E0
E0
E0
E0
E0
E0
E0
E0
E0
E0
E0
E0
E0
E0
E0
E0
E0
E0
E0
E0
E0
ENDCHAR

STARTCHAR }
ENCODING 125
SWIDTH 458 0
DWIDTH 11 0
BBX 11 25 0 -5
BITMAP
F000
3800
0C00
0C00
0C00
1C00
1800
1800
1800
0800
0400
0600
0700
0600
0400
0800
1800
1800
1800
1C00
0C00
0C00
0C00
3800
F000
ENDCHAR

STARTCHAR ~
ENCODING 126
SWIDTH 666 0
DWIDTH 16 0
BBX 16 25 0 -5
BITMAP
0000
0000
0000
0000
0000
0000
0000
0000
1C04
3E04
7F0C
6798
C3F8
81F0
80E0
0000
0000
0000
0000
0000
0000
0000
0000
0000
0000
ENDCHAR

STARTCHAR C177
ENCODING 127
SWIDTH 666 0
DWIDTH 16 0
BBX 16 25 0 -5
BITMAP
0000
0000
0000
0000
0000
0000
0000
0000
0000
0000
0000
0000
0000
0000
0000
0000
0000
0000
0000
0000
0000
0000
0000
0000
0000
ENDCHAR
ENDFONT
